<?xml version="1.0" encoding="UTF-8" standalone="no"?>
<!-- Created with Inkscape (http://www.inkscape.org/) -->

<svg
   xmlns:dc="http://purl.org/dc/elements/1.1/"
   xmlns:cc="http://creativecommons.org/ns#"
   xmlns:rdf="http://www.w3.org/1999/02/22-rdf-syntax-ns#"
   xmlns:svg="http://www.w3.org/2000/svg"
   xmlns="http://www.w3.org/2000/svg"
   xmlns:sodipodi="http://sodipodi.sourceforge.net/DTD/sodipodi-0.dtd"
   xmlns:inkscape="http://www.inkscape.org/namespaces/inkscape"
   width="66.926987mm"
   height="64.507935mm"
   viewBox="0 0 237.14287 228.57142"
   id="svg2"
   version="1.1"
   inkscape:version="0.91 r13725"
   sodipodi:docname="drawing.svg">
  <defs
     id="defs4">
    <filter
       inkscape:label="3D Marble"
       inkscape:menu="Materials"
       inkscape:menu-tooltip="3D warped marble texture"
       height="1.5"
       y="-0.25"
       width="1.5"
       x="-0.25"
       style="color-interpolation-filters:sRGB;"
       id="filter4187">
      <feGaussianBlur
         stdDeviation="4"
         result="result8"
         id="feGaussianBlur4189" />
      <feTurbulence
         seed="50"
         result="result7"
         type="turbulence"
         numOctaves="7"
         baseFrequency="0.01 0.01"
         id="feTurbulence4191" />
      <feColorMatrix
         result="result5"
         values="1 0 0 0 0 0 1 0 0 0 0 0 1 0 0 0 0 0 1.4 0 "
         id="feColorMatrix4193" />
      <feComposite
         result="result6"
         in="result5"
         operator="in"
         in2="result8"
         id="feComposite4195" />
      <feDisplacementMap
         in="result5"
         xChannelSelector="A"
         yChannelSelector="A"
         scale="100"
         result="result4"
         in2="result6"
         id="feDisplacementMap4197" />
      <feFlood
         flood-opacity="1"
         flood-color="rgb(224,224,224)"
         id="feFlood4199" />
      <feComposite
         result="result2"
         operator="atop"
         in2="result4"
         id="feComposite4201" />
      <feComposite
         in="result2"
         operator="atop"
         in2="SourceGraphic"
         result="result9"
         id="feComposite4203" />
      <feBlend
         result="fbSourceGraphic"
         mode="darken"
         in2="result9"
         id="feBlend4205" />
      <feGaussianBlur
         stdDeviation="5"
         in="fbSourceGraphic"
         result="result0"
         id="feGaussianBlur4207" />
      <feSpecularLighting
         in="result0"
         result="result1"
         lighting-color="rgb(255,255,255)"
         surfaceScale="8"
         specularConstant="0.8"
         specularExponent="30"
         id="feSpecularLighting4209">
        <feDistantLight
           elevation="55"
           azimuth="235"
           id="feDistantLight4211" />
      </feSpecularLighting>
      <feComposite
         in2="fbSourceGraphic"
         in="result1"
         result="result2"
         operator="in"
         id="feComposite4213" />
      <feComposite
         in="fbSourceGraphic"
         result="result4"
         operator="arithmetic"
         k2="1"
         k3="1"
         in2="result2"
         id="feComposite4215" />
    </filter>
  </defs>
  <sodipodi:namedview
     id="base"
     pagecolor="#ffffff"
     bordercolor="#666666"
     borderopacity="1.0"
     inkscape:pageopacity="0.0"
     inkscape:pageshadow="2"
     inkscape:zoom="2.8"
     inkscape:cx="122.78933"
     inkscape:cy="113.50608"
     inkscape:document-units="px"
     inkscape:current-layer="layer1"
     showgrid="false"
     inkscape:window-width="960"
     inkscape:window-height="1016"
     inkscape:window-x="960"
     inkscape:window-y="27"
     inkscape:window-maximized="0"
     fit-margin-top="0"
     fit-margin-left="0"
     fit-margin-right="0"
     fit-margin-bottom="0" />
  <metadata
     id="metadata7">
    <rdf:RDF>
      <cc:Work
         rdf:about="">
        <dc:format>image/svg+xml</dc:format>
        <dc:type
           rdf:resource="http://purl.org/dc/dcmitype/StillImage" />
        <dc:title></dc:title>
      </cc:Work>
    </rdf:RDF>
  </metadata>
  <g
     inkscape:label="Layer 1"
     inkscape:groupmode="layer"
     id="layer1"
     transform="translate(-140.00002,-43.790787)">
    <g
       id="g4246"
       transform="matrix(1.2722513,0,0,1.2722513,-354.29805,-36.736608)">
      <path
         sodipodi:nodetypes="cccc"
         inkscape:connector-curvature="0"
         id="path4242"
         d="m 501.42859,96.647927 15.17857,-15.178571 c 10.39893,8.120991 9.10115,20.140894 10,31.428574 z"
         style="fill:#000000;fill-rule:evenodd;stroke:none;stroke-width:1px;stroke-linecap:butt;stroke-linejoin:miter;stroke-opacity:1" />
      <path
         sodipodi:nodetypes="cccc"
         inkscape:connector-curvature="0"
         id="path4244"
         d="M 473.21431,92.00507 C 468.3757,87.294721 464.49946,79.697225 458.39288,78.790784 l -6.60715,21.071429 z"
         style="fill:#000000;fill-rule:evenodd;stroke:none;stroke-width:1px;stroke-linecap:butt;stroke-linejoin:miter;stroke-opacity:1" />
    </g>
    <ellipse
       style="color:#000000;clip-rule:nonzero;display:inline;overflow:visible;visibility:visible;opacity:1;isolation:auto;mix-blend-mode:normal;color-interpolation:sRGB;color-interpolation-filters:linearRGB;solid-color:#000000;solid-opacity:1;fill:#000000;fill-opacity:1;fill-rule:evenodd;stroke:none;stroke-width:80;stroke-linecap:round;stroke-linejoin:round;stroke-miterlimit:4;stroke-dasharray:none;stroke-dashoffset:0;stroke-opacity:1;color-rendering:auto;image-rendering:auto;shape-rendering:auto;text-rendering:auto;enable-background:accumulate"
       id="path4155"
       cx="258.57144"
       cy="138.07649"
       rx="65.750259"
       ry="62.163876" />
    <text
       xml:space="preserve"
       style="font-style:normal;font-variant:normal;font-weight:normal;font-stretch:normal;font-size:43.75875092px;line-height:125%;font-family:'Liberation Serif';-inkscape-font-specification:'Liberation Serif, Normal';text-align:center;letter-spacing:0px;word-spacing:0px;writing-mode:lr-tb;text-anchor:middle;fill:#000000;fill-opacity:1;stroke:none;stroke-width:1px;stroke-linecap:butt;stroke-linejoin:miter;stroke-opacity:1"
       x="258.96674"
       y="245.81683"
       id="text4157"
       sodipodi:linespacing="125%"><tspan
         sodipodi:role="line"
         id="tspan4159"
         x="258.96674"
         y="245.81683"
         style="font-style:normal;font-variant:normal;font-weight:normal;font-stretch:normal;font-size:43.75875092px;line-height:125%;font-family:'Liberation Serif';-inkscape-font-specification:'Liberation Serif, Normal';text-align:center;writing-mode:lr-tb;text-anchor:middle;fill:#000000;fill-opacity:1;stroke:none;stroke-opacity:1">ipywatchdog</tspan></text>
    <rect
       style="color:#000000;clip-rule:nonzero;display:inline;overflow:visible;visibility:visible;opacity:1;isolation:auto;mix-blend-mode:normal;color-interpolation:sRGB;color-interpolation-filters:linearRGB;solid-color:#000000;solid-opacity:1;fill:#000000;fill-opacity:1;fill-rule:evenodd;stroke:none;stroke-width:80;stroke-linecap:round;stroke-linejoin:round;stroke-miterlimit:4;stroke-dasharray:none;stroke-dashoffset:0;stroke-opacity:1;color-rendering:auto;image-rendering:auto;shape-rendering:auto;text-rendering:auto;enable-background:accumulate"
       id="rect4217"
       width="35.140915"
       height="21.718279"
       x="258.9433"
       y="-5.1580353"
       transform="matrix(0.9814163,0.19189074,-0.19189074,0.9814163,0,0)" />
    <rect
       y="-287.37292"
       x="2.2727852"
       height="21.718279"
       width="35.140915"
       id="rect4219"
       style="color:#000000;clip-rule:nonzero;display:inline;overflow:visible;visibility:visible;opacity:1;isolation:auto;mix-blend-mode:normal;color-interpolation:sRGB;color-interpolation-filters:linearRGB;solid-color:#000000;solid-opacity:1;fill:#000000;fill-opacity:1;fill-rule:evenodd;stroke:none;stroke-width:80;stroke-linecap:round;stroke-linejoin:round;stroke-miterlimit:4;stroke-dasharray:none;stroke-dashoffset:0;stroke-opacity:1;color-rendering:auto;image-rendering:auto;shape-rendering:auto;text-rendering:auto;enable-background:accumulate"
       transform="matrix(-0.19189074,0.9814163,-0.9814163,-0.19189074,0,0)" />
    <path
       style="fill:#ffffff"
       d="m 227.11795,160.77698 c -0.09,-0.14564 -0.0375,-0.26481 0.11676,-0.26481 0.15425,0 0.28045,0.11916 0.28045,0.26481 0,0.14566 -0.0525,0.26483 -0.11676,0.26483 -0.0643,0 -0.19043,-0.11916 -0.28045,-0.26483 z m 2.25938,-0.96364 c -0.005,-0.16588 -0.21697,-0.28505 -0.47186,-0.26482 -0.33123,0.0263 -0.44544,-0.1332 -0.40035,-0.55906 0.0348,-0.32772 -0.0547,-0.59585 -0.1986,-0.59585 -0.14394,0 -0.2617,-0.143 -0.2617,-0.31778 0,-0.24717 0.0706,-0.24717 0.31778,0 0.32635,0.32635 1.33194,0.43352 1.59543,0.17004 0.22716,-0.22718 -0.40271,-1.70599 -0.72663,-1.70599 -0.15741,0 -0.42721,0.14101 -0.59957,0.31336 -0.43294,0.43295 -0.56928,0.20018 -0.29986,-0.51198 0.12398,-0.32771 0.40801,-0.59584 0.63118,-0.59584 0.22317,0 0.40576,-0.12439 0.40576,-0.27643 0,-0.15204 -0.14896,-0.24783 -0.33102,-0.2129 -0.49175,0.0943 -1.58974,-0.31031 -2.12996,-0.78503 -0.43477,-0.38206 -0.4603,-0.37943 -0.30268,0.0313 0.19987,0.52088 0.0249,0.56052 -0.71826,0.16274 -0.50068,-0.26795 -0.50537,-0.30684 -0.0749,-0.62161 0.5975,-0.43691 0.0584,-0.81198 -0.63426,-0.44128 -0.34596,0.18515 -0.59796,0.16894 -0.83878,-0.054 -0.24946,-0.23089 -0.2962,-0.233 -0.16974,-0.007 0.0984,0.17542 -0.0289,0.36404 -0.29217,0.43271 -0.43531,0.11352 -0.43447,0.1238 0.0124,0.15245 0.26348,0.0169 0.40541,0.1499 0.31539,0.29554 -0.09,0.14565 0.001,0.26483 0.20303,0.26483 0.20169,0 0.64926,0.30078 0.99462,0.66839 0.53057,0.56477 0.66294,0.60582 0.85378,0.26481 0.30931,-0.55273 0.81923,-0.50597 1.39268,0.12769 0.55916,0.61786 0.38259,0.95997 -0.29869,0.57872 -0.30107,-0.16849 -0.70605,-0.17269 -1.12948,-0.012 -0.52473,0.19951 -0.82319,0.13042 -1.45522,-0.33687 -0.52362,-0.38712 -0.83046,-0.48184 -0.8986,-0.27741 -0.0569,0.17075 -0.26399,0.31046 -0.46016,0.31046 -0.27399,0 -0.30134,-0.19293 -0.11796,-0.83216 0.13125,-0.45769 0.16725,-0.94769 0.08,-1.08889 -0.0873,-0.14119 0.006,-0.36074 0.20627,-0.48787 0.25164,-0.1594 0.0977,-0.23243 -0.4957,-0.23522 -0.8536,-0.004 -1.16568,0.35837 -0.52964,0.61502 0.19467,0.0785 0.13671,0.14218 -0.14072,0.15448 -0.25946,0.012 -0.5368,-0.14864 -0.61631,-0.35585 -0.0795,-0.20722 -0.33098,-0.44828 -0.55879,-0.5357 -0.34426,-0.13211 -0.35769,-0.0909 -0.0795,0.24434 0.2559,0.30833 0.26212,0.49076 0.0264,0.77477 -0.24783,0.29861 -0.16329,0.4266 0.43101,0.65247 l 0.7393,0.28102 -0.92687,-0.0566 c -0.75622,-0.0461 -0.91716,-0.15552 -0.87418,-0.59381 0.0681,-0.69474 -0.94048,-1.1477 -2.94681,-1.32337 -0.83877,-0.0735 -1.74437,-0.25091 -2.01244,-0.39438 -0.26807,-0.14345 -0.90557,-0.26084 -1.41667,-0.26084 -0.65254,0 -1.04878,-0.17065 -1.33067,-0.57309 -0.22077,-0.3152 -0.61483,-0.59833 -0.87568,-0.62916 -0.84683,-0.1001 -2.19559,-0.69633 -2.19559,-0.97053 0,-0.14698 -0.17105,-0.20161 -0.38012,-0.12139 -0.20907,0.0802 -0.42802,0.004 -0.48657,-0.17028 -0.17519,-0.52028 -0.98704,0.31989 -0.98704,1.02147 0,0.33588 0.20854,0.8192 0.46343,1.07403 0.51817,0.51805 0.65064,1.69305 0.19087,1.69305 -0.7244,0 -1.44876,-1.22861 -1.44876,-2.45733 0,-1.18843 0.33233,-1.67653 1.19169,-1.75027 0.14565,-0.0125 0.27852,-0.26636 0.29527,-0.56413 0.0394,-0.70236 0.24767,-0.89433 0.68002,-0.62713 0.42948,0.26544 1.82889,0.1413 2.24341,-0.199 0.16813,-0.13803 0.61656,-0.17294 0.99651,-0.0776 0.40108,0.1007 0.85111,0.0404 1.07301,-0.1438 0.21021,-0.17445 0.50658,-0.24032 0.65861,-0.14635 0.15203,0.094 0.27642,0.0309 0.27642,-0.14007 0,-0.20995 0.20339,-0.17764 0.62636,0.0995 0.4853,0.31798 0.70281,0.33975 0.96584,0.0966 0.26854,-0.24819 0.30541,-0.21691 0.1764,0.1497 -0.11328,0.32195 -0.0241,0.46899 0.29205,0.48167 1.72509,0.0692 2.1491,0.26434 2.54921,1.17344 0.0651,0.14784 0.24066,0.0893 0.39749,-0.13241 0.20645,-0.29192 0.28199,-0.30533 0.28498,-0.0506 0.002,0.19066 0.12406,0.27249 0.27073,0.18184 0.14669,-0.0906 0.33818,0.0215 0.42557,0.24918 0.27621,0.71981 0.55711,0.45127 0.70849,-0.67732 0.0806,-0.60024 0.28338,-1.22587 0.45083,-1.3903 0.22861,-0.22448 0.26146,-0.12472 0.13186,0.4004 -0.10945,0.4437 -0.0502,0.77502 0.16229,0.90634 0.24675,0.1525 0.20013,0.25899 -0.17716,0.40456 -0.3748,0.14462 -0.28151,0.18562 0.34807,0.15294 0.5604,-0.0291 0.86032,-0.18055 0.86067,-0.4346 2.7e-4,-0.24238 0.17512,-0.14216 0.4619,0.26482 0.25376,0.36012 0.43808,0.72747 0.40958,0.81633 -0.0285,0.0888 0.56828,0.48804 1.32615,0.88706 0.75787,0.39902 1.67588,0.88876 2.04001,1.08831 1.11652,0.61186 2.48246,1.13845 3.17535,1.22414 0.41001,0.0507 0.7904,0.35543 1.00538,0.80538 l 0.34582,0.7238 1.06757,-0.67393 c 0.65982,-0.41652 1.5907,-0.71901 2.43726,-0.79197 0.75333,-0.065 1.85684,-0.16221 2.45225,-0.2162 0.59541,-0.0539 1.33237,-0.23185 1.6377,-0.39526 0.8668,-0.46388 2.37462,-0.37057 2.68732,0.16633 0.24107,0.41387 0.27079,0.39971 0.27798,-0.13241 0.008,-0.58379 0.51553,-0.78095 1.59697,-0.62026 0.84865,0.12611 1.72535,0.008 1.81009,-0.24416 0.0488,-0.14521 0.39054,-0.0266 0.75938,0.26349 0.36883,0.29013 0.77577,0.46251 0.9043,0.38307 0.12854,-0.0795 0.2337,0.0334 0.2337,0.2509 0,0.26961 -0.19649,0.35969 -0.61791,0.28326 -0.42309,-0.0767 -0.61792,0.0136 -0.61792,0.28619 0,0.26516 0.16169,0.34694 0.48384,0.24469 0.36107,-0.11461 0.44347,-0.0483 0.32476,0.26098 -0.0875,0.228 -0.27126,0.41454 -0.40835,0.41454 -0.13711,0 -0.74259,0.23834 -1.34551,0.52965 -1.31578,0.63571 -1.90627,0.68183 -1.69543,0.1324 0.0838,-0.21848 0.0165,-0.39723 -0.14943,-0.39723 -0.16602,0 -0.52067,-0.19801 -0.7881,-0.44002 -0.46388,-0.41982 -0.47856,-0.40178 -0.31958,0.39315 0.19834,0.99169 -0.35261,1.34598 -1.37133,0.88182 -0.60507,-0.27569 -0.64515,-0.24492 -0.64515,0.49482 0,0.43384 0.12619,0.78879 0.28044,0.78879 0.15424,0 0.2068,0.11916 0.11677,0.26481 -0.24807,0.40139 -1.34857,0.31674 -1.72133,-0.1324 -0.18132,-0.21849 -0.48968,-0.39723 -0.68526,-0.39723 -0.19557,0 -0.76276,-0.3575 -1.26042,-0.79445 -0.8613,-0.75625 -1.98994,-1.11304 -1.61822,-0.51159 0.0961,0.15558 0.34152,0.2189 0.54527,0.14071 0.23132,-0.0887 0.37044,0.0337 0.37044,0.32622 0,0.59238 0.50228,1.10393 1.08391,1.10393 0.24658,0 0.51694,0.17875 0.60077,0.39722 0.22587,0.58861 -0.94251,0.51128 -1.65859,-0.10981 -0.45618,-0.39565 -0.75586,-0.45791 -1.36429,-0.28341 -0.5637,0.16167 -0.88458,0.11868 -1.15833,-0.15503 -0.56252,-0.56252 -0.99055,-0.45883 -0.89656,0.21719 0.0573,0.41181 -0.10118,0.67659 -0.51299,0.85726 -0.69071,0.30302 -0.75685,0.54701 -0.20562,0.75853 0.21463,0.0824 0.4948,-0.037 0.62259,-0.26547 0.20745,-0.37068 0.2509,-0.36694 0.4051,0.0349 0.24425,0.63653 -0.048,0.98222 -0.66472,0.78645 -0.32502,-0.10321 -0.72165,0.01 -1.03699,0.29509 -0.28087,0.25418 -0.51066,0.3328 -0.51066,0.1747 0,-0.4553 -1.15811,-0.50235 -1.51429,-0.0615 -0.18757,0.23216 -0.32612,0.27304 -0.33102,0.0977 z m 1.94108,-1.28731 c 0.10274,-0.26764 -0.0126,-0.39724 -0.35326,-0.39724 -0.60941,0 -0.93834,0.43068 -0.4724,0.61852 0.55344,0.22314 0.66678,0.19276 0.82566,-0.22128 z m 0.46765,-1.65513 c 0.3161,-0.40305 0.3117,-0.42402 -0.0338,-0.1609 -0.21847,0.16639 -0.63557,0.36111 -0.92687,0.43271 -0.50305,0.12365 -0.50136,0.13173 0.0338,0.16091 0.30988,0.0169 0.72696,-0.17783 0.92686,-0.43272 z m 3.27646,-0.59584 c 0.09,-0.14565 -0.0221,-0.26481 -0.24918,-0.26481 -0.22708,0 -0.41287,0.11916 -0.41287,0.26481 0,0.14566 0.11209,0.26482 0.24919,0.26482 0.13706,0 0.32284,-0.11916 0.41286,-0.26482 z m 4.27169,-1.19705 c -0.0898,-0.23398 -0.28904,-0.34769 -0.4428,-0.25266 -0.19198,0.11868 -0.18074,0.29182 0.0358,0.55281 0.3848,0.46365 0.63049,0.28242 0.40694,-0.30015 z m 1.00755,-0.0993 c 0.0806,-0.13038 -0.0315,-0.30541 -0.2492,-0.38892 -0.24036,-0.0922 -0.3957,7.9e-4 -0.3957,0.23707 0,0.42832 0.4138,0.52575 0.6449,0.15185 z m 5.31353,-1.08703 c 0.19358,-0.31322 -0.0656,-0.31322 -0.79446,0 -0.51064,0.21943 -0.50882,0.22827 0.0506,0.24621 0.31911,0.0108 0.65386,-0.10058 0.74388,-0.24621 z m -25.20915,-1.75826 c 0.28198,-0.28198 -0.0715,-0.61219 -0.48526,-0.45338 -0.21298,0.0817 -0.32131,0.25527 -0.24071,0.38565 0.17165,0.27775 0.48657,0.30713 0.72597,0.0677 z m -2.72927,-0.36028 c 0,-0.14566 -0.0525,-0.26483 -0.11676,-0.26483 -0.0642,0 -0.19043,0.11916 -0.28045,0.26483 -0.09,0.14564 -0.0374,0.26481 0.11677,0.26481 0.15423,0 0.28044,-0.11916 0.28044,-0.26481 z m 0.74331,-0.40424 c -0.0815,-0.0815 -0.22961,0.0654 -0.32906,0.3266 -0.14371,0.37742 -0.11329,0.40785 0.14824,0.14824 0.18099,-0.17962 0.26236,-0.39331 0.18082,-0.47484 z m -2.13913,-0.2854 c -0.088,-0.088 -0.3164,-0.0975 -0.50756,-0.0209 -0.21127,0.0845 -0.14851,0.14729 0.15999,0.15999 0.27917,0.012 0.43557,-0.0511 0.34757,-0.13909 z m 6.97101,-0.50206 c -0.0207,-0.39306 -0.61322,-0.32086 -0.75067,0.0915 -0.0742,0.22275 0.0468,0.32202 0.32294,0.26483 0.24295,-0.0504 0.43543,-0.21067 0.42773,-0.35632 z m -13.51977,-1.05927 c 0,-0.21848 -0.11916,-0.39724 -0.26481,-0.39724 -0.14566,0 -0.26482,0.17876 -0.26482,0.39724 0,0.21847 0.11916,0.39722 0.26482,0.39722 0.14565,0 0.26481,-0.17875 0.26481,-0.39722 z m 17.47807,9.76997 c 0,-0.26948 -0.14569,-0.36965 -0.39724,-0.27312 -0.24196,0.0928 -0.39722,5.3e-4 -0.39722,-0.23649 0,-0.21391 0.23833,-0.38893 0.52964,-0.38893 0.3884,0 0.52963,0.17655 0.52963,0.66205 0,0.36413 -0.0596,0.66205 -0.1324,0.66205 -0.0728,0 -0.13241,-0.19149 -0.13241,-0.42556 z m -7.00269,-0.95746 c -0.22673,-0.3237 -0.41225,-0.74242 -0.41225,-0.93046 0,-0.91327 -1.24481,-2.45326 -1.98305,-2.45326 -0.31727,0 -0.6481,-0.0712 -0.73516,-0.15831 -0.22404,-0.22403 0.0733,-0.90097 0.3956,-0.90097 0.155,0 0.12926,0.16827 -0.0608,0.39724 -0.28097,0.33855 -0.20844,0.39722 0.49112,0.39722 0.58758,0 0.9465,0.19188 1.26328,0.67535 0.24446,0.37309 0.60276,0.61385 0.80056,0.53795 0.19693,-0.0755 0.35806,-0.0219 0.35806,0.11916 0,0.14107 -0.11724,0.2565 -0.26053,0.2565 -0.1433,0 -0.0616,0.41709 0.18145,0.92687 0.44945,0.94251 0.73485,1.09072 1.3495,0.70082 0.27442,-0.17407 0.26109,-0.28638 -0.0662,-0.55801 -0.5217,-0.43296 -0.53895,-1.51104 -0.0242,-1.51104 0.21207,0 0.33085,0.0886 0.26396,0.19678 -0.20742,0.33563 0.18171,1.0401 0.73939,1.33856 0.39696,0.21244 0.58478,0.19966 0.73927,-0.0504 0.16033,-0.25943 0.30936,-0.23285 0.6599,0.11773 0.24903,0.24902 0.3952,0.51036 0.32482,0.58074 -0.31426,0.31426 -1.79249,0.58476 -1.93505,0.35411 -0.0876,-0.14181 -0.39815,-0.0767 -0.72455,0.15192 -0.75065,0.52578 -0.8771,0.50832 -1.36517,-0.1885 z m 14.1528,0.32375 c 0,-0.14565 0.11916,-0.26483 0.26483,-0.26483 0.14564,0 0.26481,0.11916 0.26481,0.26483 0,0.14564 -0.11916,0.26482 -0.26481,0.26482 -0.14566,0 -0.26483,-0.11916 -0.26483,-0.26482 z m -17.79254,-0.44573 c 0.19118,-0.0765 0.41959,-0.0671 0.50758,0.0209 0.088,0.088 -0.0685,0.1506 -0.34757,0.13909 -0.3085,-0.0127 -0.37126,-0.0754 -0.16001,-0.15999 z m 0.71171,-0.17942 c -0.14564,-0.16595 -0.42882,-0.61992 -0.62928,-1.00883 -0.37747,-0.73237 -0.99907,-0.75171 -1.14317,-0.0356 -0.0641,0.31873 -0.19299,0.27657 -0.61093,-0.19987 -0.49757,-0.56723 -0.49955,-0.59277 -0.0326,-0.4219 0.53899,0.19726 1.30908,-0.27032 1.07337,-0.65172 -0.19399,-0.31387 0.0708,-0.2963 0.71294,0.0474 0.28994,0.15518 0.62212,0.53882 0.73816,0.85253 0.20483,0.5537 0.22255,0.54834 0.6059,-0.1833 0.3238,-0.61799 0.42535,-0.67432 0.56405,-0.31285 0.10297,0.26839 0.0155,0.49977 -0.2236,0.59154 -0.21603,0.083 -0.39459,0.34651 -0.39682,0.58582 -0.007,0.70886 -0.3475,1.09058 -0.658,0.73682 z m 0.66205,0.0955 c 0,-0.14565 0.17875,-0.26481 0.39722,-0.26481 0.21848,0 0.39724,-0.11916 0.39724,-0.26483 0,-0.14564 0.11916,-0.26481 0.26481,-0.26481 0.14566,0 0.26483,0.16882 0.26483,0.37516 0,0.20634 0.14895,0.43526 0.33101,0.50872 0.18208,0.0735 -0.1158,0.14299 -0.66203,0.15448 -0.5462,0.012 -0.99308,-0.0983 -0.99308,-0.24391 z m 6.9515,0.0706 c -0.18206,-0.0632 -0.33102,-0.27994 -0.33102,-0.48185 0,-0.25046 0.29802,-0.35589 0.93801,-0.33183 1.05969,0.0398 1.56955,0.47825 0.55619,0.47825 -0.36059,0 -0.69533,0.1013 -0.74388,0.2251 -0.0485,0.1238 -0.23723,0.17345 -0.4193,0.11029 z m -11.56677,-0.64974 c -0.10741,-0.24569 -0.3344,-0.39818 -0.50442,-0.33887 -0.42737,0.1491 -1.30017,-0.65036 -1.70941,-1.56581 -0.59458,-1.33004 -0.11532,-1.14305 1.20366,0.46961 0.18315,0.22393 0.50986,0.33927 0.72602,0.25633 0.44909,-0.17234 0.7627,0.43374 0.59329,1.14656 -0.1043,0.43865 -0.13024,0.44136 -0.30914,0.0321 z m 13.61912,0.0495 c 0,-0.14565 0.11916,-0.26482 0.26482,-0.26482 0.14565,0 0.26481,0.11916 0.26481,0.26482 0,0.14565 -0.11916,0.26482 -0.26481,0.26482 -0.14566,0 -0.26482,-0.11916 -0.26482,-0.26482 z m -9.6659,-1.85374 c 0.09,-0.14564 0.21622,-0.26481 0.28045,-0.26481 0.0643,0 0.11676,0.11916 0.11676,0.26481 0,0.14566 -0.12621,0.26483 -0.28045,0.26483 -0.15425,0 -0.2068,-0.11916 -0.11676,-0.26483 z m -8.07698,-1.0917 c 0,-0.46958 0.0653,-0.50782 0.39723,-0.23239 0.21848,0.18132 0.39723,0.43425 0.39723,0.56206 0,0.12782 -0.17875,0.2324 -0.39723,0.2324 -0.22833,0 -0.39723,-0.239 -0.39723,-0.56207 z m 6.00629,-0.0707 c -0.0985,-0.25678 0.0529,-0.35682 0.50112,-0.33102 0.73318,0.0422 0.84097,0.30146 0.22382,0.53828 -0.56068,0.21515 -0.56312,0.21446 -0.72494,-0.20726 z m -1.85746,-0.0734 c -0.25308,-0.25308 -0.21769,-0.61791 0.0599,-0.61791 0.13007,0 0.30508,0.17875 0.38891,0.39723 0.1549,0.40365 -0.12719,0.54234 -0.44885,0.22068 z m -0.17655,-1.27996 c 0,-0.21847 0.11916,-0.39723 0.26483,-0.39723 0.14564,0 0.26481,0.17876 0.26481,0.39723 0,0.21848 -0.11916,0.39723 -0.26481,0.39723 -0.14566,0 -0.26483,-0.17875 -0.26483,-0.39723 z m 13.7706,-3.23723 c 0,-0.11568 0.23834,-0.35928 0.52963,-0.54119 0.2934,-0.18323 0.52965,-0.2158 0.52965,-0.073 0,0.14176 -0.23834,0.38531 -0.52965,0.5412 -0.29129,0.1559 -0.52963,0.18876 -0.52963,0.073 z m -20.19798,-0.49782 c -0.10621,-0.10622 -0.19309,-0.37583 -0.19309,-0.59916 0,-0.29807 0.0784,-0.32771 0.29461,-0.11149 0.16204,0.16203 0.24893,0.43165 0.1931,0.59915 -0.0559,0.16751 -0.18841,0.21765 -0.29462,0.11149 z m 17.70798,-0.14654 c 0.1298,-0.21003 0.01,-0.25952 -0.38161,-0.1572 -0.31407,0.0821 -0.57103,0.0414 -0.57103,-0.0907 0,-0.13201 0.30594,-0.24003 0.67988,-0.24003 0.55939,0 0.6501,-0.0939 0.5118,-0.52964 -0.11928,-0.37586 -0.0476,-0.52963 0.24697,-0.52963 0.23263,0 0.41508,0.22328 0.41508,0.50798 0,0.79863 -0.28703,1.34575 -0.70601,1.34575 -0.22381,0 -0.30535,-0.12813 -0.19508,-0.30653 z m 1.73367,-0.35552 c 0.10921,-0.58008 1.28596,-0.92004 1.28596,-0.37151 0,0.18006 -0.0797,0.24767 -0.17712,0.15025 -0.0975,-0.0975 -0.40919,0.0317 -0.69282,0.28689 -0.49433,0.44477 -0.51157,0.44205 -0.41602,-0.0656 z m -5.74262,-0.41485 c -0.096,-0.15534 -0.11101,-0.34602 -0.0332,-0.42375 0.1897,-0.18968 0.70619,0.14455 0.70619,0.457 0,0.33843 -0.45719,0.31585 -0.67294,-0.0332 z m 2.3115,0.001 c 0.0637,-0.19116 0.27226,-0.3997 0.46344,-0.46343 0.1986,-0.0662 0.29791,0.0331 0.23171,0.23171 -0.0638,0.19118 -0.27227,0.39972 -0.46343,0.46344 -0.19862,0.0662 -0.29793,-0.0331 -0.23172,-0.23172 z m 5.03267,-0.004 c 0.0522,-0.15657 0.2081,-0.28468 0.34646,-0.28468 0.13837,0 0.29429,0.12811 0.34647,0.28468 0.0522,0.15658 -0.1037,0.28468 -0.34647,0.28468 -0.24275,0 -0.39866,-0.1281 -0.34646,-0.28468 z m -9.16355,-1.00109 c -1.04578,-0.61394 -1.43133,-1.25218 -1.01059,-1.67291 0.25688,-0.25689 0.32507,-0.244 0.32507,0.0614 0,0.21257 0.25938,0.54848 0.5764,0.74646 0.50464,0.31515 0.62057,0.29957 0.93115,-0.12518 0.31725,-0.43388 0.3473,-0.38129 0.28426,0.49767 -0.0798,1.11301 -0.0626,1.1053 -1.10629,0.49254 z m 4.92865,-0.0912 c -0.17479,-0.17477 -0.31779,-0.46323 -0.31779,-0.641 0,-0.17777 -0.35751,-0.40174 -0.79446,-0.49772 -0.43695,-0.0959 -0.79446,-0.29694 -0.79446,-0.4466 0,-0.14966 0.18739,-0.2002 0.41642,-0.11233 0.22903,0.0879 0.64893,0.0354 0.93312,-0.11676 0.68572,-0.36699 1.51782,0.35732 1.05338,0.91694 -0.22727,0.27384 -0.19815,0.39718 0.1229,0.52037 0.23142,0.0888 0.3466,0.28148 0.25594,0.42817 -0.21782,0.35245 -0.48725,0.33671 -0.87505,-0.0511 z m 1.73456,-0.23306 c -0.95584,-0.55674 -0.27317,-2.21511 0.79446,-1.92992 0.64686,0.17279 0.77574,0.85535 0.32171,1.70372 -0.30967,0.57861 -0.45911,0.60889 -1.11617,0.2262 z m -12.58135,-0.90893 c -0.47658,-0.73574 -0.51698,-0.9236 -0.19861,-0.9236 0.28601,0 0.39851,-0.28241 0.39561,-0.99307 -0.002,-0.64463 -0.0826,-0.86907 -0.22808,-0.63966 -0.16732,0.26397 -0.26592,0.19693 -0.38955,-0.26482 -0.30074,-1.12319 -0.19104,-2.34917 0.22446,-2.50861 0.49818,-0.19117 0.504,-0.81168 0.0164,-1.7464 -0.22458,-0.43048 -0.27582,-0.78665 -0.12647,-0.87896 0.13811,-0.0854 0.17047,-0.29591 0.0719,-0.46792 -0.0985,-0.17199 -0.0786,-0.22136 0.0442,-0.10969 0.12288,0.11173 0.37456,-0.15646 0.5593,-0.59584 0.4085,-0.97152 0.83332,-1.02858 1.01848,-0.13682 0.0756,0.36413 0.20052,0.96485 0.27762,1.33493 0.0898,0.43076 0.25649,0.60736 0.46344,0.49079 0.22732,-0.12805 0.24242,-0.0936 0.0508,0.11592 -0.32093,0.35112 -0.17742,2.42792 0.16777,2.42792 0.13035,0 0.23883,-0.20854 0.24106,-0.46343 0.004,-0.3889 0.0438,-0.40073 0.25057,-0.0736 0.27869,0.44067 0.4146,0.21128 0.62319,-1.05186 0.0719,-0.43513 0.1217,-0.30352 0.1454,0.38399 0.0433,1.25465 0.48398,0.98201 0.62073,-0.38399 l 0.0928,-0.92686 0.4088,0.92651 c 0.33509,0.75948 0.34682,0.9885 0.0651,1.27026 -0.18905,0.18903 -0.53938,0.75603 -0.7785,1.25996 -0.37013,0.77996 -0.38094,0.98243 -0.0728,1.36132 0.31583,0.3883 0.30396,0.42334 -0.0929,0.27466 -0.25022,-0.0937 -0.52658,-0.0545 -0.61413,0.0872 -0.0875,0.14167 -0.28559,0.17945 -0.44007,0.0839 -0.16142,-0.0997 -0.22872,-0.0171 -0.15825,0.19429 0.0675,0.20235 0.26166,0.36789 0.43159,0.36789 0.3781,0 0.44913,0.48291 0.0887,0.60306 -0.14298,0.0477 -0.43503,-0.16328 -0.64899,-0.46875 -0.33895,-0.48392 -0.41031,-0.49996 -0.55435,-0.12459 -0.0909,0.23696 -0.16532,0.66315 -0.16532,0.94711 0,0.28396 -0.17875,0.58489 -0.39723,0.66873 -0.21847,0.0838 -0.39723,0.31843 -0.39723,0.52133 0,0.61691 -0.36598,0.41057 -0.99551,-0.56125 z m 1.26033,-0.9236 c 0,-0.29129 -0.0457,-0.52964 -0.10154,-0.52964 -0.0559,0 -0.16385,0.23835 -0.24004,0.52964 -0.0761,0.2913 -0.0305,0.52965 0.10154,0.52965 0.13202,0 0.24003,-0.23835 0.24003,-0.52965 z m -0.0813,-2.31212 c -0.0671,-0.25766 -0.12649,-0.11101 -0.13189,0.32599 -0.006,0.43695 0.0495,0.64776 0.12208,0.46846 0.0725,-0.17929 0.077,-0.5368 0.01,-0.79445 z m 1.93755,0.18889 c 0.18896,-0.35309 0.14259,-0.51424 -0.18405,-0.63957 -0.33281,-0.12772 -0.36315,-0.24108 -0.12756,-0.47667 0.5144,-0.51441 0.34592,-0.76776 -0.17912,-0.26938 -0.42434,0.40278 -0.43941,0.52064 -0.1152,0.90057 0.22705,0.26608 0.27151,0.4999 0.11364,0.5975 -0.1427,0.0882 -0.3129,0.0108 -0.37823,-0.17233 -0.0653,-0.18296 -0.20939,-0.24843 -0.32015,-0.14547 -0.11077,0.10297 -0.13158,0.36907 -0.0463,0.59138 0.18844,0.49107 0.88363,0.27412 1.23694,-0.38603 z m -2.79442,-0.24183 c 0.0838,-0.1356 0.0313,-0.32138 -0.11676,-0.41287 -0.14802,-0.0915 -0.26913,0.0194 -0.26913,0.24652 0,0.46516 0.1589,0.53366 0.38592,0.16635 z m 0.8559,-3.12993 c -0.0667,-0.25489 -0.1211,-0.0464 -0.1211,0.46343 0,0.50978 0.0545,0.71832 0.1211,0.46343 0.0666,-0.25489 0.0666,-0.67197 0,-0.92686 z m -0.18254,-2.2289 c 0,-1.30096 -0.12565,-1.26391 -0.3741,0.11029 -0.11365,0.62871 -0.0779,0.99308 0.0972,0.99308 0.15225,0 0.27682,-0.49653 0.27682,-1.10342 z m 14.03735,8.78679 c -0.3785,-0.70722 0.0501,-1.32771 0.91706,-1.32771 0.47323,0 0.59376,0.15649 0.6119,0.79446 0.0125,0.43695 -0.0789,0.79446 -0.20286,0.79446 -0.12399,0 -0.4048,0.0688 -0.62403,0.15294 -0.24314,0.0933 -0.51693,-0.0682 -0.70207,-0.41415 z m -7.15206,0.071 c 0,-0.16287 -0.0723,-0.48463 -0.16073,-0.71502 -0.0886,-0.23079 -0.0254,-0.41888 0.14071,-0.41888 0.44497,0 0.66679,0.78326 0.32001,1.13004 -0.21883,0.21883 -0.29999,0.21987 -0.29999,0.004 z m 10.39416,-0.26489 c -0.46073,-0.16519 -0.41321,-0.86892 0.0967,-1.43239 0.3644,-0.40265 0.48207,-0.41836 0.79446,-0.10597 0.20168,0.20168 0.3667,0.54977 0.3667,0.77352 0,0.46982 -0.77184,0.93912 -1.25789,0.76484 z m -24.42956,-1.36739 c 0,-0.14565 0.11916,-0.33847 0.26481,-0.42849 0.14566,-0.09 0.26482,-0.0445 0.26482,0.10118 0,0.14564 -0.11916,0.33847 -0.26482,0.42848 -0.14565,0.09 -0.26481,0.0445 -0.26481,-0.10118 z m 10.06311,-0.074 c 0,-0.16288 0.17221,-0.42845 0.38268,-0.59015 0.21048,-0.16171 0.41902,-0.46993 0.46344,-0.68494 0.10681,-0.51717 0.49178,-0.91474 1.14003,-1.17744 0.35468,-0.14372 0.41664,-0.25669 0.18756,-0.34196 -0.27862,-0.10369 -0.279,-0.20333 -0.002,-0.537 0.29625,-0.35696 0.25507,-0.38389 -0.31997,-0.20931 -0.43999,0.13358 -0.5717,0.11209 -0.39515,-0.0644 0.14564,-0.14565 0.55039,-0.35137 0.89942,-0.45715 0.55306,-0.1676 0.6158,-0.12038 0.48823,0.36747 -0.0806,0.30789 -0.0384,0.55979 0.0936,0.55979 0.13203,0 0.24004,-0.16551 0.24004,-0.36781 0,-0.20229 0.14895,-0.36227 0.33102,-0.35551 0.18207,0.007 0.56936,-0.0162 0.86066,-0.051 0.44334,-0.053 0.40018,-0.12551 -0.26481,-0.44545 l -0.79446,-0.38221 0.92686,0.13823 c 0.70099,0.10454 0.79779,0.0784 0.39723,-0.10729 -0.76934,-0.35666 -1.6531,-0.3334 -1.8346,0.0483 -0.0866,0.18206 -0.11449,0.0892 -0.0621,-0.20643 0.11017,-0.62125 -0.49297,-1.33729 -0.76105,-0.90355 -0.11748,0.19013 -0.27241,0.19002 -0.50179,-2.6e-4 -0.1825,-0.15146 -0.41022,-0.19698 -0.50606,-0.10118 -0.0958,0.0958 -0.17425,0.0352 -0.17425,-0.13471 0,-0.16993 0.20854,-0.31078 0.46343,-0.31301 0.34085,-0.002 0.3735,-0.0611 0.12344,-0.21979 -0.19358,-0.12283 -0.2643,-0.41299 -0.16422,-0.67379 0.12589,-0.32805 0.0157,-0.49993 -0.38826,-0.60556 -0.31018,-0.0812 -0.56399,-0.25284 -0.56399,-0.38151 0,-0.12865 -0.19202,-0.23393 -0.4267,-0.23393 -0.346,0 -0.39308,-0.17918 -0.24895,-0.94751 0.15736,-0.83881 0.10753,-0.96621 -0.43396,-1.11052 l -0.61171,-0.16303 0.66204,-0.17711 c 0.62432,-0.16703 0.63188,-0.18967 0.13242,-0.39736 -1.35173,-0.56211 -1.44353,-1.34718 -0.14302,-1.22315 0.55434,0.0529 1.08845,-0.0343 1.18692,-0.19356 0.2693,-0.43574 0.68324,-0.34817 0.50837,0.10753 -0.18123,0.47226 -0.0937,0.48403 0.87109,0.11724 0.58965,-0.22417 0.65909,-0.32898 0.34826,-0.52558 -0.21353,-0.13505 -0.65264,-0.24738 -0.97579,-0.24961 -0.43749,-0.004 -0.54452,-0.11616 -0.41913,-0.44291 0.14855,-0.38707 -0.008,-0.42062 -1.32882,-0.28432 -0.82348,0.085 -1.56547,0.0441 -1.64886,-0.0907 -0.21167,-0.3425 -1.37953,-0.30763 -1.49698,0.0447 -0.0615,0.18449 -0.43079,0.0978 -1.01513,-0.23822 -0.81314,-0.46764 -1.70177,-0.56214 -3.32555,-0.35364 -0.15869,0.0204 -0.42426,0.33497 -0.59016,0.69909 -0.32963,0.72345 -0.14715,0.88498 0.31984,0.28313 0.36621,-0.47195 0.84759,-0.54243 1.94913,-0.28537 0.57074,0.1332 0.86067,0.35857 0.86067,0.66905 0,0.25751 0.1637,0.53103 0.36379,0.6078 0.26186,0.10046 0.34907,0.59073 0.31126,1.74966 -0.0493,1.51189 -0.016,1.61006 0.54745,1.61006 0.32999,0 0.66528,0.10573 0.7451,0.23482 0.18333,0.29662 -0.54169,0.91864 -0.84922,0.72857 -0.12591,-0.0778 -0.6107,0.0906 -1.07728,0.37444 -0.4666,0.28374 -1.31853,0.5159 -1.89317,0.5159 -1.02349,0 -1.0441,0.0188 -1.01008,0.92378 0.0278,0.73959 0.10538,0.86513 0.38916,0.62963 0.27595,-0.22901 0.35443,-0.17686 0.35443,0.23548 0,0.2913 0.17876,0.67799 0.39724,0.85931 0.63311,0.52544 0.50392,1.12577 -0.19862,0.92289 -1.60873,-0.46461 -2.317,-1.59153 -2.41083,-3.83591 -0.0386,-0.92275 -0.0339,-0.92666 1.05369,-0.88 l 1.09243,0.0469 -0.84492,-0.8413 c -0.46471,-0.46273 -1.06099,-1.30868 -1.32506,-1.87989 -0.4528,-0.97942 -0.45537,-1.1172 -0.0451,-2.41869 0.57165,-1.81349 1.19174,-2.55834 2.98304,-3.58322 1.46154,-0.83622 4.42722,-1.55459 5.52139,-1.33743 0.51179,0.10153 -0.34469,0.40261 -3.17783,1.117 -1.29004,0.3253 -2.51578,0.84418 -2.51578,1.06497 0,0.14249 2.78485,0.44979 5.56121,0.61367 0.50976,0.0301 1.18547,0.14152 1.50154,0.24763 0.31608,0.1061 0.83207,0.2425 1.14665,0.30307 0.31456,0.0605 0.79625,0.18135 1.07042,0.26837 0.27416,0.087 0.74378,0.027 1.04359,-0.13354 0.68081,-0.36435 1.21195,-0.10274 0.79977,0.39387 -0.22617,0.27251 -0.0813,0.41791 0.66012,0.66261 0.52243,0.17241 1.1404,0.24036 1.37329,0.151 0.25778,-0.0989 0.5652,0.0399 0.78586,0.35497 0.19934,0.28461 0.60445,0.5554 0.90024,0.60177 0.78034,0.12235 0.61255,0.62386 -0.18746,0.5603 -0.37153,-0.0295 -0.83199,-0.26767 -1.02323,-0.52922 -0.19699,-0.2694 -0.44322,-0.37392 -0.56801,-0.24111 -0.12115,0.12896 -0.0713,0.28766 0.11077,0.35268 0.18206,0.065 0.33103,0.22746 0.33103,0.36097 0,0.39086 -0.57776,0.28 -1.15016,-0.22068 -0.29139,-0.25488 -0.43805,-0.30696 -0.32593,-0.11568 0.12083,0.20607 0.005,0.57497 -0.2855,0.90558 -0.44868,0.51145 -0.45084,0.5438 -0.026,0.38885 0.33726,-0.123 0.46343,-0.0331 0.46343,0.33025 0,0.27459 0.14897,0.55937 0.33103,0.63283 0.25797,0.10406 0.25569,0.13819 -0.0108,0.15448 -0.67047,0.0411 0.59248,1.01072 1.47772,1.13456 0.69272,0.0969 0.85376,0.0358 0.78485,-0.29726 -0.0477,-0.23054 -0.28476,-0.38557 -0.52684,-0.3445 -0.35534,0.0603 -0.43194,-0.13101 -0.39755,-0.99307 0.0391,-0.98156 0.10213,-1.06774 0.78075,-1.06774 0.51499,0 0.74732,0.14013 0.76839,0.46343 0.0931,1.42961 0.25234,2.05115 0.61939,2.4182 0.3697,0.36971 0.40969,0.35248 0.40969,-0.17669 0,-0.32251 0.11916,-0.58638 0.26482,-0.58638 0.14565,0 0.26481,-0.35048 0.26481,-0.77884 0,-0.42835 0.11916,-0.85247 0.26483,-0.94248 0.38026,-0.23502 0.32718,-1.19146 -0.0662,-1.19297 -0.18206,-7.9e-4 -1.02856,-0.68345 -1.88109,-1.51723 -0.85254,-0.83376 -2.22299,-1.90211 -3.04543,-2.37408 -1.46141,-0.83865 -1.47592,-0.85831 -0.63935,-0.86615 0.54416,-0.005 1.48649,0.37789 2.58665,1.05127 0.95186,0.58259 1.84563,1.05927 1.98615,1.05927 0.14054,0 0.79386,0.51584 1.45185,1.1463 0.96337,0.92306 1.19633,1.32322 1.19633,2.05485 0,0.62176 -0.16718,1.01297 -0.52963,1.23932 -0.30116,0.18808 -0.52964,0.61757 -0.52964,0.99562 0,0.57694 0.0875,0.64287 0.66205,0.49868 0.40793,-0.10238 0.66205,-0.0535 0.66205,0.12736 0,0.16144 -0.17457,0.29354 -0.38792,0.29354 -0.56326,0 -0.9399,0.86719 -0.89328,2.05673 0.0484,1.23664 -0.16387,1.65073 -0.84644,1.65073 -0.43625,0 -0.47094,-0.096 -0.24728,-0.68428 0.48537,-1.27664 -0.28115,-1.63465 -0.80291,-0.37499 -0.181,0.43695 -0.46358,0.79628 -0.62797,0.79851 -0.17806,0.002 -0.15448,0.0955 0.0584,0.23043 0.25081,0.15895 0.0761,0.27912 -0.58655,0.40343 -0.51908,0.0974 -1.01947,0.29954 -1.112,0.44923 -0.3108,0.5029 0.11005,0.56033 0.96828,0.13217 1.00754,-0.50263 1.0351,-0.50649 1.0351,-0.14539 0,0.15371 -0.68522,0.57877 -1.52272,0.94457 -0.83748,0.36581 -1.84624,0.84017 -2.24166,1.05411 -0.39543,0.21395 -1.26815,0.40003 -1.93941,0.4135 -1.04115,0.0209 -1.25678,0.12004 -1.46769,0.67479 -0.13598,0.35765 -0.19054,0.74204 -0.12125,0.85416 0.0693,0.11209 -0.16818,0.33792 -0.52774,0.50174 -0.4809,0.21913 -0.65373,0.21958 -0.65373,0.001 z m 5.82602,-5.5185 c 0,-0.14565 -0.11916,-0.26483 -0.26481,-0.26483 -0.14566,0 -0.26482,0.11916 -0.26482,0.26483 0,0.14564 0.11916,0.26482 0.26482,0.26482 0.14565,0 0.26481,-0.11917 0.26481,-0.26482 z m -2.76084,-1.02731 c -0.19828,-0.32083 -1.21143,-0.5637 -1.21143,-0.29041 0,0.12188 0.26812,0.27324 0.59584,0.33637 0.32771,0.0631 0.63266,0.13099 0.67767,0.15082 0.0451,0.0198 0.0171,-0.0687 -0.0621,-0.19678 z m 4.61458,-1.09125 c 0,-0.14565 -0.1262,-0.26481 -0.28045,-0.26481 -0.15424,0 -0.20679,0.11916 -0.11676,0.26481 0.09,0.14566 0.21621,0.26482 0.28044,0.26482 0.0643,0 0.11677,-0.11916 0.11677,-0.26482 z m -14.37195,-0.68963 c -0.088,-0.088 -0.31641,-0.0975 -0.50757,-0.0209 -0.21126,0.0845 -0.14851,0.14728 0.15999,0.15999 0.27916,0.012 0.43557,-0.0511 0.34758,-0.13909 z m 9.71033,-0.3255 c 0.0751,-0.12138 -0.0319,-0.22069 -0.23753,-0.22069 -0.20566,0 -0.31256,0.0993 -0.23754,0.22069 0.075,0.12136 0.18191,0.22067 0.23754,0.22067 0.0556,0 0.16252,-0.0993 0.23753,-0.22067 z m 0.68934,-1.50065 c 0,-0.0417 -0.17876,-0.14434 -0.39724,-0.22818 -0.23953,-0.0919 -0.39722,-0.001 -0.39722,0.22818 0,0.22952 0.15769,0.32009 0.39722,0.22818 0.21848,-0.0838 0.39724,-0.18652 0.39724,-0.22818 z m -1.69783,-0.85923 c -0.044,-0.0441 -0.2859,-0.001 -0.53743,0.0954 -0.35499,0.13624 -0.37986,0.22339 -0.11113,0.3895 0.29869,0.1846 0.88196,-0.25147 0.64854,-0.48488 z m -1.74482,-0.75801 c 0,-0.0573 -0.24537,-0.10406 -0.54527,-0.10406 -0.2999,0 -0.47484,0.11401 -0.38875,0.25326 0.14131,0.22865 0.93402,0.10202 0.93402,-0.14918 z m -8.3817,-0.77461 c -0.21007,-0.54741 -0.35734,-0.4829 -0.35734,0.15651 0,0.29991 0.11401,0.47484 0.25326,0.38875 0.13929,-0.0861 0.18613,-0.33145 0.10406,-0.54526 z m 12.51473,-0.278 c -0.0885,-0.23039 -0.16075,-0.46872 -0.16075,-0.52963 0,-0.0609 -0.3873,-0.10322 -0.86066,-0.094 -0.75259,0.0146 -0.78925,0.0455 -0.29192,0.24626 0.31282,0.12621 0.64756,0.35699 0.74388,0.51285 0.27458,0.44427 0.74864,0.33145 0.56945,-0.13552 z m 0.63371,12.88745 c 0,-0.13351 0.14896,-0.31226 0.33102,-0.39722 0.26483,-0.12358 0.26483,-0.18538 0,-0.30895 -0.39,-0.18201 -0.44776,-0.90481 -0.0723,-0.90481 0.1423,0 0.4606,0.30809 0.70732,0.68465 0.38189,0.58284 0.39264,0.72007 0.0723,0.92281 -0.48959,0.30988 -1.03834,0.31174 -1.03834,0.004 z m 2.81724,-0.41929 c 0.0838,-0.21848 0.31844,-0.39723 0.52134,-0.39723 0.20288,0 0.36889,0.17875 0.36889,0.39723 0,0.21857 -0.23447,0.39722 -0.52133,0.39722 -0.3546,0 -0.47258,-0.12703 -0.3689,-0.39722 z m 2.5528,-0.69432 c -0.40684,-0.40683 -0.12381,-1.027 0.46869,-1.027 0.59761,0 0.8357,0.34571 0.62186,0.90296 -0.18868,0.4917 -0.66834,0.54625 -1.09055,0.12404 z m -16.42623,-0.30592 c -0.32772,-0.14982 -0.59585,-0.43293 -0.59585,-0.62915 0,-0.19622 -0.17172,-0.35676 -0.3816,-0.35676 -0.6271,0 -0.7656,-0.53844 -0.24077,-0.93606 0.75363,-0.57094 1.15201,-0.46051 1.15201,0.31937 0,0.38907 0.19788,0.92606 0.43974,1.19331 0.54846,0.60605 0.40376,0.7646 -0.37353,0.40929 z m 9.59969,0.0734 c -0.09,-0.14565 0.0221,-0.26482 0.24918,-0.26482 0.22708,0 0.41286,0.11916 0.41286,0.26482 0,0.14565 -0.11209,0.26482 -0.24918,0.26482 -0.13706,0 -0.32284,-0.11916 -0.41286,-0.26482 z m 4.44076,0.0813 c 0.25766,-0.0671 0.61516,-0.0627 0.79446,0.01 0.17928,0.0725 -0.0315,0.12748 -0.46848,0.12209 -0.43695,-0.006 -0.58364,-0.0647 -0.32598,-0.13189 z m -1.39535,-0.49653 c 0,-0.21482 0.29419,-0.52462 0.65375,-0.68845 0.35956,-0.16383 0.59086,-0.39961 0.51401,-0.52396 -0.0769,-0.12435 0.039,-0.22609 0.2575,-0.22609 1.00456,0 0.71472,0.70716 -0.56479,1.37797 -0.731,0.38325 -0.86047,0.39236 -0.86047,0.0605 z m -1.05927,-0.11437 c 0,-0.14565 0.11209,-0.26481 0.24919,-0.26481 0.13705,0 0.32284,0.11916 0.41286,0.26481 0.09,0.14566 -0.0222,0.26482 -0.2492,0.26482 -0.22706,0 -0.41285,-0.11916 -0.41285,-0.26482 z m -14.41758,-1.39029 c 0.21367,-0.69515 0.33556,-0.86313 0.50407,-0.69463 0.2023,0.2023 -0.1649,1.29047 -0.43546,1.29047 -0.13882,0 -0.1696,-0.26731 -0.0686,-0.59584 z m 9.38602,0.33833 c 0,-0.35897 0.47061,-0.58188 0.64223,-0.3042 0.082,0.13276 -0.0289,0.30972 -0.24652,0.39324 -0.21764,0.0836 -0.39571,0.0434 -0.39571,-0.0891 z m 12.4465,-0.007 c 0,-0.14565 0.11916,-0.26481 0.26481,-0.26481 0.14566,0 0.26482,0.11916 0.26482,0.26481 0,0.14566 -0.11916,0.26482 -0.26482,0.26482 -0.14565,0 -0.26481,-0.11916 -0.26481,-0.26482 z m 0.79446,0 c 0,-0.14565 0.12619,-0.26481 0.28044,-0.26481 0.15424,0 0.2068,0.11916 0.11677,0.26481 -0.09,0.14566 -0.21622,0.26482 -0.28045,0.26482 -0.0643,0 -0.11676,-0.11916 -0.11676,-0.26482 z m 0.1324,-0.79446 c -0.09,-0.14565 -0.0374,-0.26481 0.11677,-0.26481 0.15425,0 0.28044,0.11916 0.28044,0.26481 0,0.14566 -0.0525,0.26482 -0.11676,0.26482 -0.0643,0 -0.19043,-0.11916 -0.28045,-0.26482 z m -15.21031,-2.05235 c -0.0128,-1.06674 0.0756,-1.39029 0.38044,-1.39029 0.21848,0 0.39723,0.17875 0.39723,0.39722 0,0.21848 -0.11544,0.39723 -0.25651,0.39723 -0.14108,0 -0.19636,0.15675 -0.12285,0.34832 0.0735,0.19156 0.0177,0.63844 -0.12393,0.99306 -0.21775,0.54502 -0.26019,0.42969 -0.27438,-0.74554 z m 16.93164,0.99308 c 0,-0.14565 0.12619,-0.26483 0.28044,-0.26483 0.15425,0 0.2068,0.11916 0.11677,0.26483 -0.09,0.14564 -0.21622,0.26482 -0.28045,0.26482 -0.0643,0 -0.11676,-0.11917 -0.11676,-0.26482 z m -19.86144,-5.16398 c 0,-0.21847 0.10645,-0.39723 0.23648,-0.39723 0.13007,0 0.30509,0.17876 0.38892,0.39723 0.0929,0.24197 4.3e-4,0.39723 -0.23648,0.39723 -0.21391,0 -0.38892,-0.17875 -0.38892,-0.39723 z m 15.62433,-0.26482 c 0,-0.21847 0.11916,-0.39722 0.26482,-0.39722 0.14565,0 0.26481,0.17875 0.26481,0.39722 0,0.21848 -0.11916,0.39724 -0.26481,0.39724 -0.14565,0 -0.26482,-0.17876 -0.26482,-0.39724 z m -15.2384,-1.17339 c 0.0838,-0.13558 0.0313,-0.32137 -0.11677,-0.41285 -0.14802,-0.0915 -0.26914,-0.41057 -0.26914,-0.70906 0,-0.45911 0.11221,-0.515 0.72826,-0.36286 0.87219,0.21541 1.30379,0.58728 1.00536,0.86622 -0.11952,0.1116 -0.27041,0.0541 -0.33543,-0.128 -0.065,-0.18206 -0.2345,-0.33103 -0.37661,-0.33103 -0.1421,0 -0.19137,0.10838 -0.10945,0.24093 0.19619,0.31743 -0.10525,1.08318 -0.42641,1.08318 -0.13867,0 -0.18356,-0.11089 -0.0997,-0.24653 z m 8.75033,-3.99058 c -0.20713,-0.33516 0.14344,-0.33516 0.66205,0 0.34233,0.22123 0.33534,0.25727 -0.0506,0.26076 -0.24629,0.002 -0.52146,-0.11508 -0.61147,-0.26076 z m -3.44265,-2.38337 c -0.09,-0.14566 -0.0445,-0.26482 0.10118,-0.26482 0.14565,0 0.33847,0.11916 0.42849,0.26482 0.09,0.14565 0.0445,0.26481 -0.10118,0.26481 -0.14566,0 -0.33847,-0.11916 -0.42849,-0.26481 z m -1.98614,-0.54527 c 0,-0.15425 0.11916,-0.2068 0.26482,-0.11676 0.14565,0.09 0.26481,0.21623 0.26481,0.28045 0,0.0642 -0.11916,0.11676 -0.26481,0.11676 -0.14566,0 -0.26482,-0.12621 -0.26482,-0.28045 z m 34.95612,-2.61071 c -1.23803,-0.41895 -2.75742,-0.89776 -3.37644,-1.06404 -0.90319,-0.24261 -1.12548,-0.42061 -1.12548,-0.9012 0,-0.32938 -0.13409,-0.73295 -0.29795,-0.89683 -0.47439,-0.47438 -0.44742,-3.77942 0.0331,-4.06101 0.26134,-0.15315 0.28399,-0.23555 0.0662,-0.24083 -0.18206,-0.005 -0.33102,-0.15856 -0.33102,-0.34249 0,-0.31772 0.63801,-0.75771 1.65512,-1.14143 0.25489,-0.0961 0.46343,-0.27704 0.46343,-0.40195 0,-0.12493 0.37637,-0.42178 0.83638,-0.65966 0.46002,-0.23787 1.56233,-0.98574 2.44959,-1.66191 2.72387,-2.07585 4.46292,-2.70952 4.82766,-1.75905 0.0838,0.21847 0.45357,0.39723 0.82162,0.39723 0.92243,0 2.76179,0.54751 3.26728,0.97255 0.22995,0.19335 0.65201,0.35155 0.93794,0.35155 0.93831,0 4.22196,3.8885 4.46934,5.29258 0.13177,0.74801 -0.0368,1.05137 -1.50342,2.70566 -1.62456,1.8324 -3.28793,3.12416 -4.02294,3.12416 -0.20546,0 -0.89305,0.23572 -1.52797,0.52383 -1.31328,0.59591 -2.60893,0.6972 -2.61496,0.20442 -0.002,-0.22442 -0.0945,-0.20311 -0.28498,0.0662 -0.24971,0.35309 -0.26863,0.35309 -0.1702,0 0.0659,-0.23664 0.42203,-0.39722 0.88082,-0.39722 1.73225,0 5.42245,-1.92744 6.56954,-3.43135 0.81346,-1.0665 0.83917,-1.20361 0.22519,-1.2011 -0.25489,10e-4 -1.04251,0.70479 -1.75027,1.56386 -1.39828,1.69723 -1.27465,1.64943 -5.27303,2.03898 -2.07931,0.20259 -2.86165,-0.20058 -2.63993,-1.36043 0.0693,-0.36242 2.7e-4,-0.65539 -0.15418,-0.65539 -0.62989,0 -0.65412,-2.34924 -0.0437,-4.24734 0.64384,-2.00234 1.23154,-2.45818 2.3781,-1.84456 0.31734,0.16983 0.64289,0.24289 0.72344,0.16234 0.19942,-0.19942 -1.14344,-0.69092 -1.88771,-0.69092 -0.79931,0 -2.41261,1.40756 -3.24888,2.83456 -0.7307,1.24682 -0.70837,2.63053 0.0526,3.26209 0.21462,0.17813 0.39022,0.51781 0.39023,0.75486 0,0.45424 1.42343,1.71581 2.44312,2.16533 0.5041,0.22222 0.44039,0.24553 -0.39078,0.14291 -0.54619,-0.0675 -0.99308,-0.0362 -0.99308,0.0693 0,0.10549 0.38105,0.22088 0.84679,0.25636 0.97714,0.0744 1.12701,0.16927 0.88543,0.56016 -0.2774,0.44883 -1.1727,0.32645 -3.58595,-0.49017 z m 0.9254,-1.08275 c -0.26443,-0.2922 -0.54233,-0.46971 -0.61756,-0.3945 -0.0752,0.0752 0.0929,0.3105 0.37354,0.52284 0.71609,0.54176 0.80713,0.49389 0.24402,-0.12834 z m -1.3365,-1.17408 c -0.28704,-0.43808 -0.56609,-0.5898 -0.86677,-0.47126 -0.4126,0.16265 -0.41224,0.18111 0.005,0.26542 0.26519,0.0536 0.389,0.24633 0.30269,0.47127 -0.0988,0.25755 0.0363,0.38063 0.41801,0.38063 0.5371,0 0.54383,-0.0309 0.14076,-0.64606 z m -1.78824,0.032 c -0.57641,-0.22727 -0.71099,-0.41982 -0.60066,-0.85938 0.17376,-0.69238 -0.0818,-1.0007 -0.52473,-0.63307 -0.49758,0.41294 -0.14972,1.25444 0.63786,1.54307 0.96956,0.35534 1.40297,0.31034 0.48753,-0.0506 z m 8.4638,-0.31469 c 0.16831,-0.36289 0.20828,-0.72022 0.0888,-0.79404 -0.1194,-0.0738 -0.27139,0.0155 -0.33763,0.19844 -0.0945,0.26106 -0.25555,0.2524 -0.74821,-0.0403 -0.34528,-0.20513 -1.01084,-0.40335 -1.47902,-0.4405 -0.77795,-0.0617 -0.82399,-0.0239 -0.53481,0.43916 0.31794,0.50908 0.81587,0.63854 2.04277,0.53109 0.64682,-0.0567 0.64986,-0.0487 0.13241,0.34762 -0.52963,0.4056 -0.52963,0.4056 0,0.41195 0.30995,0.004 0.65658,-0.26733 0.83567,-0.65344 z m 2.37948,-0.049 c -0.10082,-0.10082 -0.44844,-0.22035 -0.77239,-0.26556 -0.46744,-0.0652 -0.50702,-0.0282 -0.1918,0.17932 0.44981,0.29611 1.2452,0.36726 0.96419,0.0862 z m 0.6131,-1.42437 c 0.15634,0.25297 0.34336,0.26647 0.74126,0.0536 0.5798,-0.3103 0.9997,-1.09398 0.58615,-1.09398 -0.14107,0 -0.25651,-0.37791 -0.25651,-0.83981 0,-0.46189 -0.19721,-1.05774 -0.43827,-1.32409 -0.44736,-0.49434 -1.03855,-0.68083 -0.76738,-0.24208 0.0824,0.13321 -2e-5,0.29706 -0.18299,0.36412 -0.26618,0.0976 -0.26651,0.19206 -10e-4,0.47281 0.18206,0.19299 0.34512,0.59518 0.36236,0.89376 0.0218,0.37855 0.0925,0.30239 0.23348,-0.25158 l 0.20217,-0.79446 0.0313,0.85035 c 0.0356,0.96676 -0.79417,1.92666 -1.67372,1.93615 -0.51225,0.006 -0.50508,0.0374 0.11616,0.51767 l 0.66205,0.51178 0.0882,-0.69624 c 0.0595,-0.46923 0.15644,-0.58593 0.29735,-0.35793 z m -11.67892,-1.07841 c 0.18247,0.27652 0.28305,0.28495 0.43655,0.0366 0.11148,-0.18035 0.0385,-0.42289 -0.16552,-0.54983 -0.29693,-0.1848 -0.30325,-0.32669 -0.0339,-0.76125 0.40164,-0.64806 0.42517,-1.07095 0.0596,-1.07095 -0.14929,0 -0.34172,0.3514 -0.42762,0.78091 -0.0858,0.42951 -0.38084,0.98424 -0.65542,1.23273 -0.27459,0.2485 -0.49925,0.62529 -0.49925,0.83734 0,0.25677 0.17508,0.17674 0.52425,-0.23967 0.41655,-0.49672 0.57298,-0.55135 0.76136,-0.26588 z m 8.48011,0.13613 c 0.45087,-0.98956 0.1704,-1.09113 -0.31671,-0.11473 -0.22251,0.44604 -0.31365,0.81097 -0.20255,0.81097 0.11113,0 0.34478,-0.31332 0.51926,-0.69627 z m -2.12136,-0.92013 c -0.26434,-0.16746 -0.27263,-0.23033 -0.0308,-0.23329 0.18206,-0.002 0.33102,-0.12322 0.33102,-0.26886 0,-0.56367 -0.49107,-0.22683 -0.74931,0.51397 -0.19869,0.56996 -0.18789,0.8081 0.0403,0.88804 0.47897,0.16781 0.83993,-0.62674 0.40881,-0.89986 z m -7.37954,-0.48652 c 0,-0.13706 -0.11916,-0.32285 -0.26482,-0.41287 -0.14565,-0.09 -0.26482,0.0222 -0.26482,0.2492 0,0.22706 0.11916,0.41285 0.26482,0.41285 0.14565,0 0.26482,-0.11209 0.26482,-0.24918 z m 9.10489,-0.1618 c 0.0904,-0.23566 0.046,-0.34196 -0.10406,-0.24919 -0.14399,0.0889 -0.26179,0.0356 -0.26179,-0.11868 0,-0.15425 0.13904,-0.28045 0.30895,-0.28045 0.16993,0 0.2593,-0.047 0.19862,-0.10453 -0.0607,-0.0574 -0.58702,-0.0133 -1.16961,0.0981 l -1.05929,0.20255 0.86067,0.19985 c 0.47336,0.10993 0.86066,0.30414 0.86066,0.43158 0,0.36546 0.19315,0.27081 0.36586,-0.17927 z m 7.57872,-0.0123 c 0,-0.0386 -0.37903,-0.34013 -0.84228,-0.66999 -0.75525,-0.53778 -0.81766,-0.38056 -0.17998,0.45334 0.18742,0.2451 1.02226,0.42202 1.02226,0.21665 z m -14.30024,-0.75273 c 0,-0.0643 -0.11916,-0.19043 -0.26481,-0.28045 -0.14566,-0.09 -0.26483,-0.0374 -0.26483,0.11677 0,0.15423 0.11916,0.28044 0.26483,0.28044 0.14564,0 0.26481,-0.0525 0.26481,-0.11676 z m 8.65511,-2.84588 c -0.0845,-0.21126 -0.14728,-0.1485 -0.15999,0.16 -0.012,0.27915 0.0511,0.43557 0.13909,0.34757 0.088,-0.088 0.0975,-0.3164 0.0209,-0.50757 z m -1.24017,-1.00962 c 0.21847,-0.1412 0.27805,-0.25671 0.13241,-0.25671 -0.14565,0 -0.44358,0.11556 -0.66205,0.25671 -0.21848,0.14119 -0.27806,0.25671 -0.13241,0.25671 0.14564,0 0.44357,-0.11557 0.66205,-0.25671 z m -1.25789,10.67504 c 0.25489,-0.0667 0.67198,-0.0667 0.92687,0 0.25489,0.0667 0.0464,0.1211 -0.46344,0.1211 -0.50977,0 -0.71832,-0.0545 -0.46343,-0.1211 z m 5.75981,-2.43732 c 0,-0.13007 0.19561,-0.31154 0.43469,-0.40329 0.36345,-0.13947 0.37984,-0.1007 0.1,0.23649 -0.38138,0.45952 -0.53467,0.50736 -0.53467,0.1668 z m -43.43033,-3.7201 c 0,-0.16944 0.35737,-0.43264 0.79414,-0.5849 1.06826,-0.3724 0.80264,-0.66769 -0.79874,-0.88793 -1.40276,-0.19294 -2.20172,-0.94441 -1.62125,-1.52488 0.16245,-0.16244 0.18531,-0.45179 0.0553,-0.69982 -0.5679,-1.08333 -0.5901,-2.63486 -0.0541,-3.7815 0.77674,-1.66168 1.32433,-2.29129 1.60202,-1.84198 0.15536,0.2514 0.27553,0.27018 0.40355,0.0631 0.10022,-0.16223 -0.0153,-0.3708 -0.25685,-0.46348 -0.47254,-0.18133 -1.46108,0.78427 -2.14194,2.0922 -0.50212,0.96458 -0.73552,0.92328 -0.53204,-0.0941 0.12657,-0.63283 0.0807,-0.79021 -0.19929,-0.6828 -0.45111,0.17311 -0.39848,-1.27906 0.0631,-1.74063 0.16651,-0.16651 0.30276,-0.4343 0.30276,-0.59507 0,-0.16077 0.42356,-0.70299 0.94125,-1.20493 0.91054,-0.88282 1.01918,-0.91565 3.32857,-1.00584 1.93255,-0.0755 2.47208,-0.0108 2.83241,0.3368 0.2448,0.23653 0.77282,0.67443 1.17336,0.97312 0.47477,0.35405 0.72966,0.78987 0.73231,1.25211 0.006,0.95674 0.34239,1.42475 0.87778,1.2193 0.33239,-0.12754 0.44954,-0.0146 0.47157,0.45447 0.0613,1.30534 -0.093,1.96614 -0.58251,2.49498 -0.27834,0.30069 -0.50607,0.83913 -0.50607,1.19654 0,0.37 -0.46797,1.21792 -1.08671,1.96908 -1.206,1.46407 -1.61859,1.77009 -2.29453,1.70181 -0.8886,-0.0898 -1.1207,0.0198 -1.1207,0.52867 0,0.62379 -0.12757,0.71066 -1.39231,0.94793 -0.68346,0.12821 -0.99105,0.0903 -0.99105,-0.12215 z m 3.44265,-2.85672 c 0.35281,-0.35171 0.338,-0.36557 -0.13241,-0.12401 -0.29131,0.14959 -0.94673,0.39449 -1.45651,0.54419 l -0.92686,0.27221 1.05927,-0.14819 c 0.58261,-0.0815 1.23803,-0.3264 1.45651,-0.5442 z m -0.83107,-0.42509 c 0.22412,-0.27006 0.13318,-0.49214 -0.38655,-0.94404 -0.4632,-0.40273 -0.61986,-0.73303 -0.49194,-1.03718 0.10321,-0.24545 0.16832,-0.8835 0.14469,-1.41787 -0.0236,-0.53439 0.0804,-1.04788 0.23131,-1.14111 0.33509,-0.20711 0.36535,-0.93272 0.0388,-0.93272 -0.12947,0 -0.21885,0.20855 -0.19862,0.46343 0.0231,0.29164 -0.13584,0.44966 -0.42889,0.42629 -0.28722,-0.0229 -0.52657,0.20542 -0.62455,0.59584 -0.0963,0.38365 -0.35293,0.633 -0.65149,0.633 -0.32825,0 -0.44196,0.13204 -0.34079,0.3957 0.0836,0.21764 0.24262,0.33962 0.35353,0.27106 0.11089,-0.0686 0.42615,0.1311 0.70051,0.44367 0.49053,0.55884 0.49002,0.56463 -0.0308,0.34827 -0.53631,-0.22278 -1.66949,-0.27473 -1.85899,-0.0852 -0.0568,0.0568 0.0649,0.5754 0.27037,1.15242 0.20553,0.57703 0.37891,0.83595 0.38531,0.57539 0.0108,-0.43589 0.0579,-0.4306 0.59119,0.0662 0.65926,0.61418 1.86103,0.71195 2.29683,0.18685 z m -2.96467,-1.14754 c -0.0971,-0.0971 -0.17655,-0.29968 -0.17655,-0.45019 0,-0.16594 0.12334,-0.15031 0.31337,0.0397 0.17235,0.17236 0.25179,0.37495 0.17654,0.4502 -0.0753,0.0753 -0.21626,0.0574 -0.31336,-0.0397 z m 5.38466,0.1603 c 0,-0.10945 -0.23005,-0.13882 -0.51122,-0.0653 -0.29563,0.0773 -0.49553,0.34213 -0.474,0.62794 0.0345,0.45796 0.072,0.46276 0.51122,0.0653 0.26069,-0.23592 0.474,-0.51849 0.474,-0.62793 z m -0.66394,-0.77518 c 0.0928,-0.15012 -0.0135,-0.19451 -0.24918,-0.10406 -0.45878,0.17605 -0.54272,0.36586 -0.16179,0.36586 0.13705,0 0.322,-0.11784 0.41097,-0.26179 z m -0.25192,-0.55049 c 0.0961,-0.15546 -0.0674,-0.34595 -0.36328,-0.42332 -0.32502,-0.085 -0.48158,-0.2876 -0.39553,-0.51182 0.0783,-0.20412 0.0175,-0.37114 -0.13511,-0.37114 -0.43279,0 -0.53176,0.34341 -0.28622,0.99308 0.23599,0.62443 0.88185,0.79584 1.18014,0.3132 z m 1.40123,-1.26505 c -0.13092,-0.0501 -0.44265,-0.012 -0.69273,0.0851 -0.41704,0.1617 -0.41133,0.20822 0.0691,0.56167 0.46741,0.34396 0.54186,0.33481 0.69273,-0.0851 0.0929,-0.25877 0.0619,-0.51151 -0.0691,-0.56167 z m -6.1305,-0.3557 c -0.0845,-0.21125 -0.14728,-0.1485 -0.15999,0.16 -0.012,0.27916 0.0511,0.43557 0.13909,0.34758 0.088,-0.088 0.0973,-0.31642 0.0209,-0.50758 z m 1.05928,-0.79445 c -0.0845,-0.21126 -0.14729,-0.14851 -0.16,0.15999 -0.012,0.27916 0.0511,0.43557 0.13909,0.34758 0.088,-0.088 0.0975,-0.31641 0.0209,-0.50757 z m 3.26175,-1.12641 c 0,-0.0643 -0.11917,-0.19043 -0.26482,-0.28045 -0.14565,-0.09 -0.26483,-0.0374 -0.26483,0.11676 0,0.15424 0.11916,0.28045 0.26483,0.28045 0.14564,0 0.26482,-0.0525 0.26482,-0.11676 z m -3.20236,-1.88452 c 0.12613,0.0779 0.38145,-0.0416 0.56739,-0.26559 0.29367,-0.35386 0.23917,-0.38941 -0.41512,-0.27075 -0.41425,0.075 -0.94016,0.33323 -1.16871,0.57358 -0.38273,0.40252 -0.36806,0.4127 0.18577,0.12901 0.33073,-0.16939 0.70453,-0.24421 0.83067,-0.16625 z m 94.36633,8.0839 c -0.59356,-0.23859 -0.77607,-0.64357 -0.3959,-0.87852 0.20696,-0.12791 1.38898,0.7192 1.38898,0.99541 0,0.20598 -0.26841,0.17438 -0.99308,-0.11688 z m -97.74835,-1.11479 c -0.14927,-0.47472 -0.3214,-1.16103 -0.38251,-1.52516 -0.0662,-0.39456 -0.13119,-0.18056 -0.16082,0.52963 l -0.0498,1.1917 -0.41191,-0.99309 c -0.52287,-1.2606 -0.3346,-1.77426 0.62382,-1.70188 0.70395,0.0531 0.74934,0.13554 0.87962,1.59635 0.15544,1.74295 -0.0929,2.19245 -0.49849,0.90245 z m 95.96083,-1.26034 c -0.09,-0.14565 -0.0375,-0.26482 0.11676,-0.26482 0.15425,0 0.28045,0.11917 0.28045,0.26482 0,0.14565 -0.0525,0.26481 -0.11676,0.26481 -0.0643,0 -0.19043,-0.11916 -0.28045,-0.26481 z m -0.29605,-8.46929 c -0.61836,-0.25004 -0.9124,-1.22218 -0.61382,-2.02934 0.20549,-0.55549 2.89601,-2.0996 2.89601,-1.66205 0,0.14324 -0.17657,0.32821 -0.39238,0.41102 -0.30224,0.11592 -0.32841,0.27008 -0.11401,0.67083 0.21301,0.398 0.36192,0.45098 0.63363,0.22549 0.67489,-0.56012 0.68013,0.20453 0.007,1.00463 -0.36509,0.43391 -0.66381,0.92067 -0.66381,1.08171 0,0.16103 -0.10945,0.29279 -0.24316,0.29279 -0.13374,0 -0.40187,0.0522 -0.59584,0.1158 -0.19398,0.0638 -0.60508,0.0138 -0.91355,-0.11088 z m 1.36834,-2.33113 c -0.2271,-0.22711 -0.94035,0.51469 -0.93107,0.96834 0.007,0.33337 0.12828,0.28753 0.53626,-0.20236 0.2901,-0.34835 0.46776,-0.69304 0.39481,-0.76598 z m -11.92987,-1.03991 c -0.43696,-0.49365 -0.8506,-0.95763 -0.91921,-1.03107 -0.0686,-0.0735 0.0471,-0.23974 0.25716,-0.36956 0.6906,-0.42681 0.0385,-0.60742 -1.26364,-0.34996 -0.7033,0.13906 -1.42171,0.20517 -1.59647,0.14692 -0.45714,-0.15238 -0.39541,-2.050993 0.0795,-2.445148 0.21847,-0.181318 0.39723,-0.475367 0.39723,-0.653437 0,-0.17807 0.24389,-0.544483 0.542,-0.814262 0.29809,-0.269766 0.72876,-0.88408 0.95704,-1.365136 0.22827,-0.481043 0.51282,-0.874634 0.63233,-0.874634 0.11952,0 1.11808,-0.715816 2.21902,-1.59069 1.95742,-1.555494 2.0127,-1.579697 2.49837,-1.094027 0.27318,0.273159 0.64801,1.12745 0.83296,1.898423 0.30675,1.278714 0.29374,1.432868 -0.14828,1.756077 -0.66684,0.487601 -0.83051,0.453171 -1.49864,-0.315237 -0.32655,-0.375572 -0.74919,-0.605467 -0.96256,-0.523577 -0.31694,0.121619 -0.3229,0.07672 -0.0357,-0.26937 0.18958,-0.228444 0.47457,-0.365995 0.63329,-0.305683 0.15874,0.0603 0.54198,0.01547 0.85167,-0.09974 0.43043,-0.160052 0.53241,-0.369747 0.43293,-0.890159 l -0.13014,-0.680799 -0.96256,0.766142 c -1.45947,1.161651 -3.21354,2.886104 -3.21354,3.159287 0,0.133654 -0.17875,0.391361 -0.39722,0.57268 -0.21848,0.181318 -0.39724,0.490094 -0.39724,0.686158 0,0.208076 0.16538,0.293041 0.39724,0.20406 0.21847,-0.0838 0.39722,-0.0404 0.39722,0.09664 0,0.451457 -0.32721,0.587342 -0.8022,0.333136 -0.36551,-0.195609 -0.56512,-0.101779 -0.91321,0.42953 -0.49529,0.755905 -0.40359,1.140217 0.12119,0.507885 0.18424,-0.221994 0.55873,-0.403625 0.83219,-0.403625 0.53408,0 0.66872,0.392392 0.22807,0.664712 -0.14801,0.09147 -0.19577,0.285039 -0.10609,0.430118 0.0993,0.160544 0.34498,0.09914 0.62798,-0.157019 0.43379,-0.39256 0.49549,-0.340867 0.92001,0.77073 0.25027,0.65533 0.59526,1.16464 0.76663,1.13178 0.17138,-0.0328 0.59877,-0.44702 0.94974,-0.92038 0.35098,-0.47337 0.75286,-0.860667 0.89309,-0.860667 0.14022,0 0.11088,0.173538 -0.0651,0.385627 -0.17602,0.2121 -0.24868,0.50109 -0.16147,0.6422 0.0873,0.14112 0.0198,0.56116 -0.14981,0.93342 -0.23322,0.511835 -0.44833,0.641745 -0.88232,0.532815 -0.39687,-0.0996 -0.64999,0.0108 -0.82046,0.35968 -0.22821,0.46632 -0.30553,0.43707 -1.04098,-0.39383 z m 4.44787,-2.33893 c -0.0143,-0.504097 0.0681,-0.974662 0.18299,-1.045691 0.3358,-0.207537 0.47318,1.439241 0.14292,1.713331 -0.21292,0.17671 -0.30746,-0.0169 -0.32591,-0.66764 z m 2.04019,-1.44506 c 0,-0.145655 0.11916,-0.264828 0.26482,-0.264828 0.14565,0 0.26482,0.119161 0.26482,0.264828 0,0.145642 -0.11916,0.264815 -0.26482,0.264815 -0.14565,0 -0.26482,-0.119161 -0.26482,-0.264815 z m -5.03157,-1.174461 c 0,-0.399728 0.55941,-1.473747 0.76761,-1.473747 0.1381,0 0.0728,0.357507 -0.14525,0.794458 -0.35379,0.709188 -0.62236,1.002331 -0.62236,0.679289 z m 4.40573,-0.598933 c -0.0883,-0.08835 0.15324,-0.323437 0.53684,-0.52245 0.38359,-0.199001 0.72762,-0.32991 0.76451,-0.290889 0.14528,0.153662 -1.15091,0.963777 -1.30135,0.813339 z m -3.87609,-1.420077 c 0,-0.15425 0.11917,-0.206793 0.26482,-0.116763 0.14565,0.09003 0.26483,0.216216 0.26483,0.280447 0,0.06426 -0.11916,0.116764 -0.26483,0.116764 -0.14564,0 -0.26482,-0.126198 -0.26482,-0.280448 z m 3.17784,-3.130947 c 0,-0.145643 0.11916,-0.33847 0.26481,-0.428488 0.14566,-0.09003 0.26482,-0.04448 0.26482,0.101179 0,0.145654 -0.11916,0.33847 -0.26482,0.428488 -0.14565,0.09003 -0.26481,0.04447 -0.26481,-0.101179 z m 2.52708,-0.01295 c -0.0838,-0.135585 -0.0313,-0.321375 0.11677,-0.412856 0.14802,-0.09147 0.26913,0.01942 0.26913,0.246522 0,0.465159 -0.1589,0.533647 -0.38592,0.166334 z m -20.5942,-0.75636 c -1.02184,-0.744348 -1.24287,-1.115677 -0.6641,-1.115677 0.45826,0 2.31242,1.281687 2.31242,1.598458 0,0.443965 -0.62898,0.259745 -1.64832,-0.482781 z m 13.30037,0.09878 c 0,-0.111249 2.57604,-1.744041 2.75148,-1.744041 0.0524,0 0.0953,0.306857 0.0953,0.681914 0,0.451002 -0.089,0.59294 -0.26273,0.419173 -0.17376,-0.173766 -0.56882,-0.09087 -1.16664,0.244952 -0.85811,0.481978 -1.41744,0.639021 -1.41744,0.398002 z m 14.76506,-1.346806 c -0.0696,-0.364136 -0.0239,-0.662051 0.10153,-0.662051 0.12546,0 0.2281,0.297915 0.2281,0.662051 0,0.364124 -0.0457,0.662038 -0.10154,0.662038 -0.0559,0 -0.15848,-0.297914 -0.22809,-0.662038 z m -0.20001,-2.259478 c 0,-0.441627 -0.17876,-1.230774 -0.39723,-1.753668 -0.44121,-1.055988 -0.52515,-2.210111 -0.16074,-2.210111 0.13007,0 0.31851,0.208544 0.41876,0.463433 0.25466,0.647461 0.51788,4.303315 0.30984,4.303315 -0.0939,0 -0.17063,-0.361331 -0.17063,-0.802969 z m -12.31408,0.273327 c 0.09,-0.145643 0.21621,-0.264816 0.28044,-0.264816 0.0643,0 0.11677,0.119161 0.11677,0.264816 0,0.145654 -0.1262,0.264827 -0.28045,0.264827 -0.15424,0 -0.20679,-0.119161 -0.11676,-0.264827 z m 4.89915,-0.898526 c 0,-0.05718 0.17875,-0.172676 0.39722,-0.256508 0.21849,-0.0838 0.39724,-0.03704 0.39724,0.104056 0,0.141087 -0.17875,0.256508 -0.39724,0.256508 -0.21847,0 -0.39722,-0.04687 -0.39722,-0.104056 z m -5.69361,-0.955206 c -0.20714,-0.335161 0.14343,-0.335161 0.66205,0 0.34233,0.221227 0.33533,0.257263 -0.0506,0.260764 -0.2463,0.0024 -0.52146,-0.115085 -0.61148,-0.260764 z m 12.35376,-3.070587 c -0.0218,-0.305131 -0.27801,-0.770482 -0.56931,-1.034111 -0.2913,-0.263628 -0.53226,-0.78856 -0.53546,-1.16653 -0.004,-0.377958 -0.24213,-1.208021 -0.53096,-1.844561 -0.52384,-1.154494 -1.1101,-4.022292 -0.87274,-4.269233 0.31424,-0.326926 1.30064,2.308065 1.58531,4.234899 0.0753,0.509779 0.37286,1.428661 0.66121,2.041956 0.28878,0.614206 0.47427,1.446882 0.41295,1.853743 -0.0761,0.505379 -0.12385,0.563437 -0.151,0.183837 z m -3.08509,-7.257356 c -0.09,-0.145654 -0.0374,-0.264827 0.11676,-0.264827 0.15425,0 0.28045,0.119161 0.28045,0.264827 0,0.145643 -0.0525,0.264815 -0.11677,0.264815 -0.0643,0 -0.19043,-0.11916 -0.28044,-0.264815 z M 311.411,72.234067 c -0.24699,-0.458554 -0.65235,-1.280608 -0.90084,-1.826794 -0.24848,-0.546187 -0.54341,-0.993076 -0.65539,-0.993076 -0.11196,0 -0.2839,-0.365551 -0.38203,-0.812344 -0.0982,-0.446794 -0.32081,-0.866998 -0.49484,-0.933783 -0.37628,-0.144384 -0.50494,-1.166878 -0.14682,-1.166878 0.1366,0 0.24837,0.124364 0.24837,0.276372 0,0.152008 0.29791,0.597675 0.66204,0.990366 0.36413,0.392692 0.66205,0.812536 0.66205,0.93298 0,0.120443 0.30273,0.615884 0.67273,1.100992 0.77602,1.017411 1.25186,2.449392 0.97463,2.932977 -0.12993,0.226633 -0.33421,0.06677 -0.6399,-0.500812 z"
       id="path4240"
       inkscape:connector-curvature="0" />
  </g>
</svg>
